<svg xmlns="http://www.w3.org/2000/svg" xmlns:xlink="http://www.w3.org/1999/xlink" width="500" height="800" viewBox="0 0 500 800">
  <defs>
    <linearGradient id="linear-gradient" y1="0.5" x2="1" y2="0.5" gradientUnits="objectBoundingBox">
      <stop offset="0" stop-color="#022b63"/>
      <stop offset="1" stop-color="#006cff"/>
    </linearGradient>
    <clipPath id="clip-path">
      <rect id="Rectangle_2" data-name="Rectangle 2" width="1201" height="800" fill="none"/>
    </clipPath>
    <clipPath id="clip-Artboard_1">
      <rect width="500" height="800"/>
    </clipPath>
  </defs>
  <g id="Artboard_1" data-name="Artboard 1" clip-path="url(#clip-Artboard_1)">
    <rect width="500" height="800" fill="#fff"/>
    <g id="Group_60" data-name="Group 60">
      <g id="BACKGROUND">
        <rect id="Rectangle_1" data-name="Rectangle 1" width="1201" height="800" fill="url(#linear-gradient)"/>
        <g id="Group_2" data-name="Group 2">
          <g id="Group_1" data-name="Group 1" clip-path="url(#clip-path)">
            <path id="Path_1" data-name="Path 1" d="M20.78,790.286c14.73-31.333,35.563-57.385,56.7-90.678,13.823-21.77,23.167-51.755,19.913-81.161-4-36.129-25.827-65.116-26.5-101.706-.511-27.723,11.608-52.887,26.187-70.468,42.789-51.6,88.481-17.035,97.827-117.673,8.646-93.092,45.113-174.932,93.722-235.463,47.295-58.9,108.772-84.1,170.378-92,34.4-4.412,70.634,3.53,99.237,32,22.269,22.167,38.414,55.008,54.085,87.156,14.549,29.848,22.2,56.777,48.32,61.591,19.041,3.511,38.391-7.777,57.247,1.178,51.409,27.827,57.866,83.365,68.113,149.2,12.624,81.094,67.841,97.325,113.066,124.078,142.593,84.355,71.571,410.264-61.732,435.148-20.106,3.752-40.643,2.046-60.517,7.884C739.98,910.2,734.5,951.6,708.064,980.877c-29.154,32.286-64.173,50.25-100.343,55.122-52.807,7.114-105.863-3.7-158.555-12.48-59.224-9.864-139.848-40.506-198.636-21.775-61.948,19.738-98.489,101.99-169.99,66.3C35.682,1045.66,4.158,979.07.515,909.574-2.248,856.844,6.33,821.023,20.78,790.286Z" transform="matrix(0.999, -0.052, 0.052, 0.999, -70.179, -354.23)" fill="#fff" opacity="0.1"/>
            <path id="Path_2" data-name="Path 2" d="M99.2,407.644c8.628-5.683,23.15-8.307,30.343-16.034,10.155-10.907,6.727-25.959,15.6-37.75,58.63-77.917,166.681-2.641,199.01-119.934,10.355-37.57,12.448-78.332,20.78-116.8C400.6-47.541,555.779-11.174,638.477,60.359c60.557,52.38,65.164,128.308,98.043,206.3,28.608,67.861,86.682,83.624,121.9,142.526,37.182,62.186,7.957,144.985,27.5,215.395,19.284,69.466,60.443,123.531,55.742,202.944-5.911,99.849-56.891,149.441-107.533,210.169-29.849,35.793-63.313,66.733-100.232,87.772-72.712,41.433-152.752,37.679-221.383-16.283-49.306-38.767-91.205-92.116-133.655-143.525C322.544,897.447,262.4,825.861,199,769.768,149.121,725.638,80.055,738.2,33.381,690.129-5.664,649.92-9.339,566.8,16.524,510.532,39.107,461.4,67.35,428.622,99.2,407.644Z" transform="translate(-167.524 155.377) rotate(2)" fill="#fff" opacity="0.1"/>
          </g>
        </g>
      </g>
    </g>
  </g>
</svg>
